<?xml version="1.0" encoding="utf-8"?>
<!-- Generator: Adobe Illustrator 19.2.0, SVG Export Plug-In . SVG Version: 6.00 Build 0)  -->
<svg version="1.1" id="Camada_1" xmlns="http://www.w3.org/2000/svg" xmlns:xlink="http://www.w3.org/1999/xlink" x="0px" y="0px"
	 viewBox="0 0 24 24" style="enable-background:new 0 0 24 24;" xml:space="preserve">
<style type="text/css">
	.st0{fill:#FFFFFF;}
</style>
<path class="st0" d="M20.5,3.5c-4.7-4.7-12.3-4.7-17,0c-4.7,4.7-4.7,12.3,0,17c4.7,4.7,12.3,4.7,17,0C25.2,15.8,25.2,8.2,20.5,3.5z
	 M13.6,17.2c0,0.9-0.7,1.6-1.6,1.6c-0.9,0-1.6-0.7-1.6-1.6c0,0,0,0,0,0V11c0-0.9,0.7-1.6,1.6-1.6s1.6,0.7,1.6,1.6c0,0,0,0,0,0V17.2z
	 M12,8.3c-0.9,0-1.5-0.6-1.5-1.4c0-0.8,0.6-1.4,1.5-1.4c0.9,0,1.5,0.6,1.5,1.4C13.5,7.6,12.9,8.3,12,8.3z"/>
</svg>
